<?xml version="1.0" encoding="UTF-8" standalone="no"?>
<!DOCTYPE svg PUBLIC "-//W3C//DTD SVG 1.1//EN"
 "http://www.w3.org/Graphics/SVG/1.1/DTD/svg11.dtd">
<!-- Generated by graphviz version 10.0.1 (20240210.2158)
 -->
<!-- Title: G Pages: 1 -->
<svg width="1852pt" height="348pt"
 viewBox="0.00 0.00 1851.57 347.93" xmlns="http://www.w3.org/2000/svg" xmlns:xlink="http://www.w3.org/1999/xlink">
<g id="graph0" class="graph" transform="scale(1 1) rotate(0) translate(4 343.93)">
<title>G</title><style>.edge>path:hover{stroke-width:8}</style>
<polygon fill="white" stroke="none" points="-4,4 -4,-343.93 1847.57,-343.93 1847.57,4 -4,4"/>
<!-- Action -->
<g id="node1" class="node">
<title>Action</title><style>.edge>path:hover{stroke-width:8}</style>
<ellipse fill="#c24747" stroke="black" cx="242.44" cy="-308.82" rx="27" ry="18"/>
<text text-anchor="middle" x="242.44" y="-305.32" font-family="Helvetica,sans-Serif" font-size="10.00" fill="#ffffff">Action</text>
</g>
<!-- Python_ActionList -->
<g id="node9" class="node">
<title>Python_ActionList</title><style>.edge>path:hover{stroke-width:8}</style>
<ellipse fill="#49ac62" stroke="black" cx="226.44" cy="-120.85" rx="42.07" ry="22.63"/>
<text text-anchor="middle" x="226.44" y="-123.35" font-family="Helvetica,sans-Serif" font-size="10.00" fill="#000000">Python.</text>
<text text-anchor="middle" x="226.44" y="-111.35" font-family="Helvetica,sans-Serif" font-size="10.00" fill="#000000">ActionList</text>
</g>
<!-- Action&#45;&gt;Python_ActionList -->
<g id="edge1" class="edge">
<title>Action&#45;&gt;Python_ActionList</title><style>.edge>path:hover{stroke-width:8}</style>
<path fill="none" stroke="black" d="M234.44,-209.59C242.14,-192.48 240.62,-171.62 236.95,-154.53"/>
<polygon fill="#c24747" stroke="black" points="240.35,-153.71 234.52,-144.86 233.56,-155.41 240.35,-153.71"/>
<path fill="none" stroke="black" d="M236.27,-290.98C230.02,-271.09 222.81,-237.43 234.44,-211.59"/>
</g>
<!-- Python_Contestant -->
<g id="node13" class="node">
<title>Python_Contestant</title><style>.edge>path:hover{stroke-width:8}</style>
<ellipse fill="#3d8f51" stroke="black" cx="481.44" cy="-120.85" rx="44.72" ry="22.63"/>
<text text-anchor="middle" x="481.44" y="-123.35" font-family="Helvetica,sans-Serif" font-size="10.00" fill="#ffffff">Python.</text>
<text text-anchor="middle" x="481.44" y="-111.35" font-family="Helvetica,sans-Serif" font-size="10.00" fill="#ffffff">Contestant</text>
</g>
<!-- Action&#45;&gt;Python_Contestant -->
<g id="edge2" class="edge">
<title>Action&#45;&gt;Python_Contestant</title><style>.edge>path:hover{stroke-width:8}</style>
<path fill="none" stroke="black" d="M234.44,-209.59C241.46,-193.99 244.08,-188.79 258.44,-179.48 265.77,-174.73 367.01,-149.61 430.53,-134.14"/>
<polygon fill="#c24747" stroke="black" points="431.17,-137.59 440.06,-131.83 429.52,-130.79 431.17,-137.59"/>
</g>
<!-- ActionList -->
<g id="node2" class="node">
<title>ActionList</title><style>.edge>path:hover{stroke-width:8}</style>
<ellipse fill="#c27547" stroke="black" cx="323.44" cy="-308.82" rx="35.78" ry="18"/>
<text text-anchor="middle" x="323.44" y="-305.32" font-family="Helvetica,sans-Serif" font-size="10.00" fill="#000000">ActionList</text>
</g>
<!-- Python_Blender_PoseEngine -->
<g id="node11" class="node">
<title>Python_Blender_PoseEngine</title><style>.edge>path:hover{stroke-width:8}</style>
<ellipse fill="#347945" stroke="black" cx="642.44" cy="-31.11" rx="48.44" ry="31.11"/>
<text text-anchor="middle" x="642.44" y="-39.61" font-family="Helvetica,sans-Serif" font-size="10.00" fill="#ffffff">Python.</text>
<text text-anchor="middle" x="642.44" y="-27.61" font-family="Helvetica,sans-Serif" font-size="10.00" fill="#ffffff">Blender.</text>
<text text-anchor="middle" x="642.44" y="-15.61" font-family="Helvetica,sans-Serif" font-size="10.00" fill="#ffffff">PoseEngine</text>
</g>
<!-- ActionList&#45;&gt;Python_Blender_PoseEngine -->
<g id="edge3" class="edge">
<title>ActionList&#45;&gt;Python_Blender_PoseEngine</title><style>.edge>path:hover{stroke-width:8}</style>
<path fill="none" stroke="black" d="M272.44,-209.59C272.41,-144.95 130.84,-181.21 156.44,-121.85"/>
<path fill="none" stroke="black" d="M308.96,-292.14C293.89,-274.12 272.45,-242.98 272.44,-211.59"/>
</g>
<!-- ActionList&#45;&gt;Python_Contestant -->
<g id="edge4" class="edge">
<title>ActionList&#45;&gt;Python_Contestant</title><style>.edge>path:hover{stroke-width:8}</style>
<path fill="none" stroke="black" d="M272.44,-209.59C272.43,-192.24 371.68,-157.14 433.39,-136.99"/>
<polygon fill="#c27547" stroke="black" points="434.2,-140.41 442.63,-134 432.04,-133.75 434.2,-140.41"/>
</g>
<!-- Blender_BlenderUtils -->
<g id="node3" class="node">
<title>Blender_BlenderUtils</title><style>.edge>path:hover{stroke-width:8}</style>
<ellipse fill="#b69d53" stroke="black" cx="48.44" cy="-308.82" rx="48.44" ry="22.63"/>
<text text-anchor="middle" x="48.44" y="-311.32" font-family="Helvetica,sans-Serif" font-size="10.00" fill="#000000">Blender.</text>
<text text-anchor="middle" x="48.44" y="-299.32" font-family="Helvetica,sans-Serif" font-size="10.00" fill="#000000">BlenderUtils</text>
</g>
<!-- Blender_BlenderUtils&#45;&gt;Python_Blender_PoseEngine -->
<g id="edge5" class="edge">
<title>Blender_BlenderUtils&#45;&gt;Python_Blender_PoseEngine</title><style>.edge>path:hover{stroke-width:8}</style>
<path fill="none" stroke="black" d="M156.44,-119.85C189.91,-42.25 460.04,-32.14 582.48,-31.59"/>
<polygon fill="#b69d53" stroke="black" points="582.35,-35.09 592.35,-31.57 582.34,-28.09 582.35,-35.09"/>
<path fill="none" stroke="black" d="M81.63,-292C109.69,-276.26 146.82,-249.05 156.44,-211.59"/>
<path fill="none" stroke="black" d="M156.44,-209.59C166.13,-171.82 140.99,-157.66 156.44,-121.85"/>
</g>
<!-- Blender_PoseEngine -->
<g id="node4" class="node">
<title>Blender_PoseEngine</title><style>.edge>path:hover{stroke-width:8}</style>
<ellipse fill="#b69d53" stroke="black" cx="955.44" cy="-308.82" rx="48.44" ry="22.63"/>
<text text-anchor="middle" x="955.44" y="-311.32" font-family="Helvetica,sans-Serif" font-size="10.00" fill="#000000">Blender.</text>
<text text-anchor="middle" x="955.44" y="-299.32" font-family="Helvetica,sans-Serif" font-size="10.00" fill="#000000">PoseEngine</text>
</g>
<!-- Python_Environment -->
<g id="node14" class="node">
<title>Python_Environment</title><style>.edge>path:hover{stroke-width:8}</style>
<ellipse fill="#46a45e" stroke="black" cx="959.44" cy="-120.85" rx="48.97" ry="22.63"/>
<text text-anchor="middle" x="959.44" y="-123.35" font-family="Helvetica,sans-Serif" font-size="10.00" fill="#000000">Python.</text>
<text text-anchor="middle" x="959.44" y="-111.35" font-family="Helvetica,sans-Serif" font-size="10.00" fill="#000000">Environment</text>
</g>
<!-- Blender_PoseEngine&#45;&gt;Python_Environment -->
<g id="edge6" class="edge">
<title>Blender_PoseEngine&#45;&gt;Python_Environment</title><style>.edge>path:hover{stroke-width:8}</style>
<path fill="none" stroke="black" d="M955.91,-285.76C956.61,-253.46 957.91,-193.06 958.72,-155.29"/>
<polygon fill="#b69d53" stroke="black" points="962.21,-155.47 958.93,-145.4 955.22,-155.32 962.21,-155.47"/>
</g>
<!-- BlenderUtils -->
<g id="node5" class="node">
<title>BlenderUtils</title><style>.edge>path:hover{stroke-width:8}</style>
<ellipse fill="#a9b653" stroke="black" cx="156.44" cy="-308.82" rx="41.19" ry="18"/>
<text text-anchor="middle" x="156.44" y="-305.32" font-family="Helvetica,sans-Serif" font-size="10.00" fill="#000000">BlenderUtils</text>
</g>
<!-- BlenderUtils&#45;&gt;Python_Blender_PoseEngine -->
<g id="edge7" class="edge">
<title>BlenderUtils&#45;&gt;Python_Blender_PoseEngine</title><style>.edge>path:hover{stroke-width:8}</style>
<path fill="none" stroke="black" d="M153.88,-290.46C151.59,-270.94 149.54,-238.45 156.44,-211.59"/>
</g>
<!-- Contestant -->
<g id="node6" class="node">
<title>Contestant</title><style>.edge>path:hover{stroke-width:8}</style>
<ellipse fill="#85ce3b" stroke="black" cx="851.44" cy="-308.82" rx="38.03" ry="18"/>
<text text-anchor="middle" x="851.44" y="-305.32" font-family="Helvetica,sans-Serif" font-size="10.00" fill="#000000">Contestant</text>
</g>
<!-- Contestant&#45;&gt;Python_Blender_PoseEngine -->
<g id="edge8" class="edge">
<title>Contestant&#45;&gt;Python_Blender_PoseEngine</title><style>.edge>path:hover{stroke-width:8}</style>
<path fill="none" stroke="black" d="M882.44,-209.59C909.71,-167.43 897.9,-134.74 863.44,-98.23 814.6,-46.48 774.75,-85.3 707.44,-62.23 701.78,-60.28 695.95,-58.01 690.21,-55.59"/>
<polygon fill="#85ce3b" stroke="black" points="692,-52.55 681.43,-51.74 689.18,-58.97 692,-52.55"/>
<path fill="none" stroke="black" d="M854.18,-290.67C858.02,-270.48 866.39,-236.54 882.44,-211.59"/>
</g>
<!-- Contestant&#45;&gt;Python_Environment -->
<g id="edge9" class="edge">
<title>Contestant&#45;&gt;Python_Environment</title><style>.edge>path:hover{stroke-width:8}</style>
<path fill="none" stroke="black" d="M882.44,-209.59C896.4,-188 915.44,-166.26 931.09,-149.82"/>
<polygon fill="#85ce3b" stroke="black" points="933.43,-152.44 937.87,-142.82 928.4,-147.57 933.43,-152.44"/>
</g>
<!-- Python_main -->
<g id="node16" class="node">
<title>Python_main</title><style>.edge>path:hover{stroke-width:8}</style>
<ellipse fill="#409656" stroke="black" cx="1107.44" cy="-120.85" rx="42.54" ry="18"/>
<text text-anchor="middle" x="1107.44" y="-117.35" font-family="Helvetica,sans-Serif" font-size="10.00" fill="#ffffff">Python.main</text>
</g>
<!-- Contestant&#45;&gt;Python_main -->
<g id="edge10" class="edge">
<title>Contestant&#45;&gt;Python_main</title><style>.edge>path:hover{stroke-width:8}</style>
<path fill="none" stroke="black" d="M882.44,-209.59C902.33,-178.84 999.9,-149.19 1059.83,-133.47"/>
<polygon fill="#85ce3b" stroke="black" points="1060.65,-136.87 1069.45,-130.98 1058.9,-130.09 1060.65,-136.87"/>
</g>
<!-- Environment -->
<g id="node7" class="node">
<title>Environment</title><style>.edge>path:hover{stroke-width:8}</style>
<ellipse fill="#60b653" stroke="black" cx="1207.44" cy="-308.82" rx="41.64" ry="18"/>
<text text-anchor="middle" x="1207.44" y="-305.32" font-family="Helvetica,sans-Serif" font-size="10.00" fill="#000000">Environment</text>
</g>
<!-- Environment&#45;&gt;Python_main -->
<g id="edge11" class="edge">
<title>Environment&#45;&gt;Python_main</title><style>.edge>path:hover{stroke-width:8}</style>
<path fill="none" stroke="black" d="M1198.17,-290.98C1188.24,-272.19 1172.79,-240.61 1164.44,-211.59"/>
</g>
<!-- Python_Action -->
<g id="node8" class="node">
<title>Python_Action</title><style>.edge>path:hover{stroke-width:8}</style>
<ellipse fill="#4cb366" stroke="black" cx="333.44" cy="-120.85" rx="46.6" ry="18"/>
<text text-anchor="middle" x="333.44" y="-117.35" font-family="Helvetica,sans-Serif" font-size="10.00" fill="#000000">Python.Action</text>
</g>
<!-- Python_Blender_BlenderUtils -->
<g id="node10" class="node">
<title>Python_Blender_BlenderUtils</title><style>.edge>path:hover{stroke-width:8}</style>
<ellipse fill="#49ac62" stroke="black" cx="764.44" cy="-31.11" rx="48.44" ry="31.11"/>
<text text-anchor="middle" x="764.44" y="-39.61" font-family="Helvetica,sans-Serif" font-size="10.00" fill="#000000">Python.</text>
<text text-anchor="middle" x="764.44" y="-27.61" font-family="Helvetica,sans-Serif" font-size="10.00" fill="#000000">Blender.</text>
<text text-anchor="middle" x="764.44" y="-15.61" font-family="Helvetica,sans-Serif" font-size="10.00" fill="#000000">BlenderUtils</text>
</g>
<!-- Python_Collision -->
<g id="node12" class="node">
<title>Python_Collision</title><style>.edge>path:hover{stroke-width:8}</style>
<ellipse fill="#49ac62" stroke="black" cx="619.44" cy="-120.85" rx="37.3" ry="22.63"/>
<text text-anchor="middle" x="619.44" y="-123.35" font-family="Helvetica,sans-Serif" font-size="10.00" fill="#000000">Python.</text>
<text text-anchor="middle" x="619.44" y="-111.35" font-family="Helvetica,sans-Serif" font-size="10.00" fill="#000000">Collision</text>
</g>
<!-- Python_common -->
<g id="node15" class="node">
<title>Python_common</title><style>.edge>path:hover{stroke-width:8}</style>
<ellipse fill="#4cb366" stroke="black" cx="802.44" cy="-120.85" rx="52.47" ry="18"/>
<text text-anchor="middle" x="802.44" y="-117.35" font-family="Helvetica,sans-Serif" font-size="10.00" fill="#000000">Python.common</text>
</g>
<!-- bpy -->
<g id="node17" class="node">
<title>bpy</title><style>.edge>path:hover{stroke-width:8}</style>
<ellipse fill="#3bce97" stroke="black" cx="633.44" cy="-308.82" rx="27" ry="18"/>
<text text-anchor="middle" x="633.44" y="-305.32" font-family="Helvetica,sans-Serif" font-size="10.00" fill="#000000">bpy</text>
</g>
<!-- bpy&#45;&gt;Python_Blender_BlenderUtils -->
<g id="edge12" class="edge">
<title>bpy&#45;&gt;Python_Blender_BlenderUtils</title><style>.edge>path:hover{stroke-width:8}</style>
<path fill="none" stroke="black" d="M592.44,-209.59C579.42,-167.8 634.63,-174.57 665.44,-143.48 689.71,-118.98 715.55,-89.8 734.74,-67.46"/>
<polygon fill="#3bce97" stroke="black" points="737.19,-69.97 741.03,-60.1 731.87,-65.42 737.19,-69.97"/>
</g>
<!-- bpy&#45;&gt;Python_Blender_PoseEngine -->
<g id="edge13" class="edge">
<title>bpy&#45;&gt;Python_Blender_PoseEngine</title><style>.edge>path:hover{stroke-width:8}</style>
<path fill="none" stroke="black" d="M592.44,-209.59C579.8,-169.02 542.55,-162.65 554.44,-121.85"/>
</g>
<!-- bpy&#45;&gt;Python_Contestant -->
<g id="edge14" class="edge">
<title>bpy&#45;&gt;Python_Contestant</title><style>.edge>path:hover{stroke-width:8}</style>
<path fill="none" stroke="black" d="M625.29,-291.51C616.16,-272.67 601.46,-240.55 592.44,-211.59"/>
<path fill="none" stroke="black" d="M592.44,-209.59C582.56,-177.88 552.14,-155.19 525.65,-140.84"/>
<polygon fill="#3bce97" stroke="black" points="527.57,-137.89 517.08,-136.44 524.37,-144.12 527.57,-137.89"/>
</g>
<!-- common -->
<g id="node18" class="node">
<title>common</title><style>.edge>path:hover{stroke-width:8}</style>
<ellipse fill="#22e7e7" stroke="black" cx="409.44" cy="-308.82" rx="32.17" ry="18"/>
<text text-anchor="middle" x="409.44" y="-305.32" font-family="Helvetica,sans-Serif" font-size="10.00" fill="#000000">common</text>
</g>
<!-- common&#45;&gt;Python_Action -->
<g id="edge15" class="edge">
<title>common&#45;&gt;Python_Action</title><style>.edge>path:hover{stroke-width:8}</style>
<path fill="none" stroke="black" d="M408.44,-209.59C409.13,-181.97 387.32,-158.65 367.04,-143.01"/>
<polygon fill="#22e7e7" stroke="black" points="369.29,-140.32 359.15,-137.27 365.18,-145.98 369.29,-140.32"/>
</g>
<!-- common&#45;&gt;Python_ActionList -->
<g id="edge16" class="edge">
<title>common&#45;&gt;Python_ActionList</title><style>.edge>path:hover{stroke-width:8}</style>
<path fill="none" stroke="black" d="M408.44,-209.59C408.63,-201.89 322.75,-163.4 268.91,-140.03"/>
<polygon fill="#22e7e7" stroke="black" points="270.56,-136.93 259.99,-136.17 267.78,-143.36 270.56,-136.93"/>
<path fill="none" stroke="black" d="M408.89,-290.43C408.36,-271.16 407.75,-239.15 408.44,-211.59"/>
</g>
<!-- common&#45;&gt;Python_Blender_PoseEngine -->
<g id="edge17" class="edge">
<title>common&#45;&gt;Python_Blender_PoseEngine</title><style>.edge>path:hover{stroke-width:8}</style>
<path fill="none" stroke="black" d="M408.44,-209.59C409.69,-159.4 394.3,-135.95 427.44,-98.23 466.09,-54.22 533.24,-39.09 582.24,-34.1"/>
<polygon fill="#22e7e7" stroke="black" points="582.49,-37.59 592.14,-33.22 581.87,-30.62 582.49,-37.59"/>
</g>
<!-- common&#45;&gt;Python_Collision -->
<g id="edge18" class="edge">
<title>common&#45;&gt;Python_Collision</title><style>.edge>path:hover{stroke-width:8}</style>
<path fill="none" stroke="black" d="M408.44,-209.59C410.36,-132.67 497.46,-173.19 568.44,-143.48 571.81,-142.07 575.3,-140.6 578.81,-139.12"/>
<polygon fill="#22e7e7" stroke="black" points="580.01,-142.41 587.86,-135.3 577.28,-135.97 580.01,-142.41"/>
</g>
<!-- common&#45;&gt;Python_Contestant -->
<g id="edge19" class="edge">
<title>common&#45;&gt;Python_Contestant</title><style>.edge>path:hover{stroke-width:8}</style>
<path fill="none" stroke="black" d="M408.44,-209.59C409.07,-184.06 427.58,-161.99 445.8,-146.38"/>
<polygon fill="#22e7e7" stroke="black" points="447.87,-149.2 453.46,-140.19 443.48,-143.75 447.87,-149.2"/>
</g>
<!-- ctypes_Structure -->
<g id="node19" class="node">
<title>ctypes_Structure</title><style>.edge>path:hover{stroke-width:8}</style>
<ellipse fill="#5391b6" stroke="black" cx="1306.44" cy="-308.82" rx="39.42" ry="22.63"/>
<text text-anchor="middle" x="1306.44" y="-311.32" font-family="Helvetica,sans-Serif" font-size="10.00" fill="#000000">ctypes.</text>
<text text-anchor="middle" x="1306.44" y="-299.32" font-family="Helvetica,sans-Serif" font-size="10.00" fill="#000000">Structure</text>
</g>
<!-- test_support -->
<g id="node26" class="node">
<title>test_support</title><style>.edge>path:hover{stroke-width:8}</style>
<ellipse fill="#8b4096" stroke="black" cx="1503.44" cy="-120.85" rx="40.74" ry="18"/>
<text text-anchor="middle" x="1503.44" y="-117.35" font-family="Helvetica,sans-Serif" font-size="10.00" fill="#ffffff">test.support</text>
</g>
<!-- ctypes_Structure&#45;&gt;test_support -->
<g id="edge20" class="edge">
<title>ctypes_Structure&#45;&gt;test_support</title><style>.edge>path:hover{stroke-width:8}</style>
<path fill="none" stroke="black" d="M1503.44,-209.59C1503.24,-189.98 1503.24,-167.9 1503.29,-150.8"/>
<polygon fill="#5391b6" stroke="black" points="1506.79,-150.86 1503.33,-140.85 1499.79,-150.83 1506.79,-150.86"/>
<path fill="none" stroke="black" d="M1331.7,-291.03C1338.92,-286.49 1346.88,-281.73 1354.44,-277.71 1418.4,-243.68 1504.17,-284.04 1503.44,-211.59"/>
</g>
<!-- ctypes_c_int -->
<g id="node20" class="node">
<title>ctypes_c_int</title><style>.edge>path:hover{stroke-width:8}</style>
<ellipse fill="#5391b6" stroke="black" cx="1405.44" cy="-308.82" rx="41.64" ry="18"/>
<text text-anchor="middle" x="1405.44" y="-305.32" font-family="Helvetica,sans-Serif" font-size="10.00" fill="#000000">ctypes.c_int</text>
</g>
<!-- ctypes_c_int&#45;&gt;test_support -->
<g id="edge21" class="edge">
<title>ctypes_c_int&#45;&gt;test_support</title><style>.edge>path:hover{stroke-width:8}</style>
<path fill="none" stroke="black" d="M1426.28,-293.09C1455.12,-271.91 1503.66,-233.05 1503.44,-211.59"/>
</g>
<!-- ctypes_cdll -->
<g id="node21" class="node">
<title>ctypes_cdll</title><style>.edge>path:hover{stroke-width:8}</style>
<ellipse fill="#5391b6" stroke="black" cx="1503.44" cy="-308.82" rx="38.03" ry="18"/>
<text text-anchor="middle" x="1503.44" y="-305.32" font-family="Helvetica,sans-Serif" font-size="10.00" fill="#000000">ctypes.cdll</text>
</g>
<!-- ctypes_cdll&#45;&gt;test_support -->
<g id="edge22" class="edge">
<title>ctypes_cdll&#45;&gt;test_support</title><style>.edge>path:hover{stroke-width:8}</style>
<path fill="none" stroke="black" d="M1503.54,-290.43C1503.64,-271.16 1503.72,-239.16 1503.44,-211.59"/>
</g>
<!-- ctypes_pointer -->
<g id="node22" class="node">
<title>ctypes_pointer</title><style>.edge>path:hover{stroke-width:8}</style>
<ellipse fill="#5391b6" stroke="black" cx="1606.44" cy="-308.82" rx="46.6" ry="18"/>
<text text-anchor="middle" x="1606.44" y="-305.32" font-family="Helvetica,sans-Serif" font-size="10.00" fill="#000000">ctypes.pointer</text>
</g>
<!-- ctypes_pointer&#45;&gt;test_support -->
<g id="edge23" class="edge">
<title>ctypes_pointer&#45;&gt;test_support</title><style>.edge>path:hover{stroke-width:8}</style>
<path fill="none" stroke="black" d="M1583.89,-292.71C1553.65,-271.6 1503.66,-233.43 1503.44,-211.59"/>
</g>
<!-- logger -->
<g id="node23" class="node">
<title>logger</title><style>.edge>path:hover{stroke-width:8}</style>
<ellipse fill="#2253e7" stroke="black" cx="1048.44" cy="-308.82" rx="27" ry="18"/>
<text text-anchor="middle" x="1048.44" y="-305.32" font-family="Helvetica,sans-Serif" font-size="10.00" fill="#ffffff">logger</text>
</g>
<!-- logger&#45;&gt;Python_Blender_BlenderUtils -->
<g id="edge24" class="edge">
<title>logger&#45;&gt;Python_Blender_BlenderUtils</title><style>.edge>path:hover{stroke-width:8}</style>
<path fill="none" stroke="black" d="M1040.44,-209.59C1015.33,-154.54 1128.75,-195.63 1159.44,-143.48 1169.64,-126.15 1172.43,-113.58 1159.44,-98.23 1117.25,-48.39 924.36,-36.09 824.6,-33.08"/>
<polygon fill="#2253e7" stroke="black" points="824.81,-29.58 814.71,-32.8 824.61,-36.58 824.81,-29.58"/>
</g>
<!-- logger&#45;&gt;Python_Blender_PoseEngine -->
<g id="edge25" class="edge">
<title>logger&#45;&gt;Python_Blender_PoseEngine</title><style>.edge>path:hover{stroke-width:8}</style>
<path fill="none" stroke="black" d="M1040.44,-209.59C1019.11,-163.77 1054.71,-132.36 1017.44,-98.23 966.29,-51.39 774.19,-81.04 707.44,-62.23 701.6,-60.58 695.63,-58.47 689.79,-56.13"/>
<polygon fill="#2253e7" stroke="black" points="691.43,-53.03 680.86,-52.32 688.68,-59.47 691.43,-53.03"/>
</g>
<!-- logger&#45;&gt;Python_Contestant -->
<g id="edge26" class="edge">
<title>logger&#45;&gt;Python_Contestant</title><style>.edge>path:hover{stroke-width:8}</style>
<path fill="none" stroke="black" d="M1050.39,-290.61C1051.92,-270.65 1052.12,-237.22 1040.44,-211.59"/>
<path fill="none" stroke="black" d="M1040.44,-209.59C1013.31,-150.1 961.05,-189.47 896.44,-179.48 739.28,-155.17 695.42,-179.13 540.44,-143.48 535.77,-142.41 530.97,-141.07 526.22,-139.58"/>
<polygon fill="#2253e7" stroke="black" points="527.34,-136.27 516.75,-136.4 525.11,-142.9 527.34,-136.27"/>
</g>
<!-- logger&#45;&gt;Python_Environment -->
<g id="edge27" class="edge">
<title>logger&#45;&gt;Python_Environment</title><style>.edge>path:hover{stroke-width:8}</style>
<path fill="none" stroke="black" d="M1040.44,-209.59C1029.5,-185.6 1009.43,-163.79 992.01,-147.92"/>
<polygon fill="#2253e7" stroke="black" points="994.68,-145.6 984.86,-141.62 990.05,-150.86 994.68,-145.6"/>
</g>
<!-- logger&#45;&gt;Python_main -->
<g id="edge28" class="edge">
<title>logger&#45;&gt;Python_main</title><style>.edge>path:hover{stroke-width:8}</style>
<path fill="none" stroke="black" d="M1040.44,-209.59C1028.89,-184.26 1052.01,-159.43 1074.18,-142.69"/>
<polygon fill="#2253e7" stroke="black" points="1076.18,-145.56 1082.29,-136.91 1072.12,-139.86 1076.18,-145.56"/>
</g>
<!-- mathutils -->
<g id="node24" class="node">
<title>mathutils</title><style>.edge>path:hover{stroke-width:8}</style>
<ellipse fill="#6053b6" stroke="black" cx="554.44" cy="-308.82" rx="33.52" ry="18"/>
<text text-anchor="middle" x="554.44" y="-305.32" font-family="Helvetica,sans-Serif" font-size="10.00" fill="#ffffff">mathutils</text>
</g>
<!-- mathutils&#45;&gt;Python_Blender_PoseEngine -->
<g id="edge29" class="edge">
<title>mathutils&#45;&gt;Python_Blender_PoseEngine</title><style>.edge>path:hover{stroke-width:8}</style>
<path fill="none" stroke="black" d="M554.44,-119.85C561.49,-95.64 580.44,-75.25 598.96,-60.24"/>
<polygon fill="#6053b6" stroke="black" points="600.98,-63.1 606.77,-54.23 596.71,-57.56 600.98,-63.1"/>
<path fill="none" stroke="black" d="M551.27,-290.44C545.86,-257 537.01,-181.68 554.44,-121.85"/>
</g>
<!-- numpy -->
<g id="node25" class="node">
<title>numpy</title><style>.edge>path:hover{stroke-width:8}</style>
<ellipse fill="#8522e7" stroke="black" cx="722.44" cy="-308.82" rx="27.21" ry="18"/>
<text text-anchor="middle" x="722.44" y="-305.32" font-family="Helvetica,sans-Serif" font-size="10.00" fill="#ffffff">numpy</text>
</g>
<!-- numpy&#45;&gt;Python_Blender_PoseEngine -->
<g id="edge30" class="edge">
<title>numpy&#45;&gt;Python_Blender_PoseEngine</title><style>.edge>path:hover{stroke-width:8}</style>
<path fill="none" stroke="black" d="M722.44,-209.59C729.4,-157 697.75,-102.17 672.22,-67.63"/>
<polygon fill="#8522e7" stroke="black" points="675.31,-65.91 666.47,-60.07 669.74,-70.15 675.31,-65.91"/>
</g>
<!-- numpy&#45;&gt;Python_Collision -->
<g id="edge31" class="edge">
<title>numpy&#45;&gt;Python_Collision</title><style>.edge>path:hover{stroke-width:8}</style>
<path fill="none" stroke="black" d="M722.44,-209.59C726.98,-175.33 692.27,-151.46 661.93,-137.37"/>
<polygon fill="#8522e7" stroke="black" points="663.4,-134.19 652.84,-133.39 660.6,-140.6 663.4,-134.19"/>
</g>
<!-- numpy&#45;&gt;Python_Contestant -->
<g id="edge32" class="edge">
<title>numpy&#45;&gt;Python_Contestant</title><style>.edge>path:hover{stroke-width:8}</style>
<path fill="none" stroke="black" d="M721.06,-290.34C719.86,-270.99 718.82,-238.92 722.44,-211.59"/>
<path fill="none" stroke="black" d="M722.44,-209.59C733.74,-124.28 621.28,-172.98 540.44,-143.48 536.29,-141.97 531.98,-140.39 527.66,-138.81"/>
<polygon fill="#8522e7" stroke="black" points="529.01,-135.58 518.42,-135.43 526.61,-142.15 529.01,-135.58"/>
</g>
<!-- numpy&#45;&gt;Python_common -->
<g id="edge33" class="edge">
<title>numpy&#45;&gt;Python_common</title><style>.edge>path:hover{stroke-width:8}</style>
<path fill="none" stroke="black" d="M722.44,-209.59C726.08,-182.07 748.03,-159.23 768.02,-143.75"/>
<polygon fill="#8522e7" stroke="black" points="770.06,-146.59 776.06,-137.86 765.93,-140.94 770.06,-146.59"/>
</g>
<!-- numpy&#45;&gt;Python_main -->
<g id="edge34" class="edge">
<title>numpy&#45;&gt;Python_main</title><style>.edge>path:hover{stroke-width:8}</style>
<path fill="none" stroke="black" d="M722.44,-209.59C731.26,-142.99 952,-158.68 1017.44,-143.48 1031.26,-140.27 1046.25,-136.7 1059.96,-133.41"/>
<polygon fill="#8522e7" stroke="black" points="1060.75,-136.82 1069.65,-131.07 1059.11,-130.01 1060.75,-136.82"/>
</g>
<!-- test_support__force_run -->
<g id="node27" class="node">
<title>test_support__force_run</title><style>.edge>path:hover{stroke-width:8}</style>
<ellipse fill="#a953b6" stroke="black" cx="1800.44" cy="-308.82" rx="43.13" ry="31.11"/>
<text text-anchor="middle" x="1800.44" y="-317.32" font-family="Helvetica,sans-Serif" font-size="10.00" fill="#ffffff">test.</text>
<text text-anchor="middle" x="1800.44" y="-305.32" font-family="Helvetica,sans-Serif" font-size="10.00" fill="#ffffff">support.</text>
<text text-anchor="middle" x="1800.44" y="-293.32" font-family="Helvetica,sans-Serif" font-size="10.00" fill="#ffffff">_force_run</text>
</g>
<!-- test_support_os_helper -->
<g id="node28" class="node">
<title>test_support_os_helper</title><style>.edge>path:hover{stroke-width:8}</style>
<ellipse fill="#a64cb3" stroke="black" cx="1800.44" cy="-210.59" rx="41.01" ry="31.11"/>
<text text-anchor="middle" x="1800.44" y="-219.09" font-family="Helvetica,sans-Serif" font-size="10.00" fill="#ffffff">test.</text>
<text text-anchor="middle" x="1800.44" y="-207.09" font-family="Helvetica,sans-Serif" font-size="10.00" fill="#ffffff">support.</text>
<text text-anchor="middle" x="1800.44" y="-195.09" font-family="Helvetica,sans-Serif" font-size="10.00" fill="#ffffff">os_helper</text>
</g>
<!-- test_support__force_run&#45;&gt;test_support_os_helper -->
<g id="edge35" class="edge">
<title>test_support__force_run&#45;&gt;test_support_os_helper</title><style>.edge>path:hover{stroke-width:8}</style>
<path fill="none" stroke="black" d="M1800.44,-277.37C1800.44,-269.83 1800.44,-261.61 1800.44,-253.61"/>
<polygon fill="#a953b6" stroke="black" points="1803.94,-253.68 1800.44,-243.69 1796.94,-253.69 1803.94,-253.68"/>
</g>
<!-- tkinter_Tk -->
<g id="node29" class="node">
<title>tkinter_Tk</title><style>.edge>path:hover{stroke-width:8}</style>
<ellipse fill="#b6539d" stroke="black" cx="1705.44" cy="-308.82" rx="33.98" ry="18"/>
<text text-anchor="middle" x="1705.44" y="-305.32" font-family="Helvetica,sans-Serif" font-size="10.00" fill="#ffffff">tkinter.Tk</text>
</g>
<!-- tkinter_Tk&#45;&gt;test_support -->
<g id="edge36" class="edge">
<title>tkinter_Tk&#45;&gt;test_support</title><style>.edge>path:hover{stroke-width:8}</style>
<path fill="none" stroke="black" d="M1686.75,-293.4C1679.4,-288.1 1670.74,-282.27 1662.44,-277.71 1595.37,-240.85 1504.22,-288.12 1503.44,-211.59"/>
</g>
<!-- utils -->
<g id="node30" class="node">
<title>utils</title><style>.edge>path:hover{stroke-width:8}</style>
<ellipse fill="#b65378" stroke="black" cx="1120.44" cy="-308.82" rx="27" ry="18"/>
<text text-anchor="middle" x="1120.44" y="-305.32" font-family="Helvetica,sans-Serif" font-size="10.00" fill="#ffffff">utils</text>
</g>
<!-- utils&#45;&gt;Python_main -->
<g id="edge37" class="edge">
<title>utils&#45;&gt;Python_main</title><style>.edge>path:hover{stroke-width:8}</style>
<path fill="none" stroke="black" d="M1164.44,-209.59C1157.69,-186.18 1142.36,-163.21 1129.3,-146.65"/>
<polygon fill="#b65378" stroke="black" points="1132.34,-144.84 1123.3,-139.31 1126.92,-149.27 1132.34,-144.84"/>
<path fill="none" stroke="black" d="M1134.64,-293.02C1150.58,-274.57 1173.13,-241.78 1164.44,-211.59"/>
</g>
</g>
</svg>
